<?xml version="1.0" encoding="UTF-8"?>
<svg xmlns="http://www.w3.org/2000/svg" viewBox="0 0 157.02 157.02">
  <defs>
    <style>
      .cls-1, .cls-2 {
        stroke-width: 0px;
      }

      .cls-2 {
        fill: #fff;
      }
    </style>
  </defs>
  <g id="Default">
    <circle class="cls-2" cx="78.51" cy="78.51" r="78.51" transform="translate(-32.52 78.51) rotate(-45)"/>
  </g>
  <g id="Layer_2" data-name="Layer 2">
    <circle class="cls-1" cx="78.51" cy="77.43" r="64.77"/>
  </g>
  <g id="Layer_3" data-name="Layer 3">
    <path class="cls-2" d="M62.91,97.79c-6.02,2.73-15.64,4.19-22.23,2.62-3.75-.9-7.11-3-7.86-7.21-.29-1.64-.14-3.14.27-4.73.55-2.18,1.5-4.11,2.63-6.02,3.57-6,9.77-12.46,15.28-16.64,6.16-4.67,12.91-7.75,20.94-7.57-.2-1.42-.37-2.84-.5-4.27-.45-5.78-.59-11.52-.21-17.31.19-2.89.49-5.74,1.11-8.58.39-1.75.93-3.9,2.07-5.4.55-.72,1.44-1.43,2.42-.93.9.46,1.44,1.56,1.81,2.38.78,1.74,1.22,3.53,1.61,5.38.59,2.84.96,5.69,1.23,8.57.55,5.77.69,11.52.6,17.31.16-.26.32-.53.49-.79,3.28-5.24,6.76-10.31,10.55-15.2,3.05-3.93,8.46-10.47,12.76-13.32,3.98-2.64,5.54-.9,4.9,3.58-.44,3.12-1.49,5.97-2.66,8.85-2.33,5.76-5.23,11.15-8.45,16.45-1.67,2.67-3.43,5.28-5.23,7.86-2.16,3.1.75,7.19,4.38,6.18,6.37-1.77,11.75-2,16.89-1.71,11.13.63,21.09,3.72,28.81,9.74.53.41,1.04.84,1.75,1.24-.47,37.52-31.33,67.51-68.85,66.92-2.65-3.18-4.85-6.79-6.53-10.46-3.31-7.2-4.66-14.59-4.88-22.26-.11-3.93.07-7.93.65-11.86.31-2.1-1.83-3.71-3.76-2.83Z"/>
  </g>
</svg>